<mxfile host="Electron" agent="Mozilla/5.0 (Windows NT 10.0; Win64; x64) AppleWebKit/537.36 (KHTML, like Gecko) draw.io/24.7.8 Chrome/128.0.6613.36 Electron/32.0.1 Safari/537.36" version="24.7.8">
  <diagram name="Page-1" id="E8WJ5GQT24KlG_a3Vso5">
    <mxGraphModel dx="683" dy="398" grid="1" gridSize="10" guides="1" tooltips="1" connect="1" arrows="1" fold="1" page="0" pageScale="1" pageWidth="1100" pageHeight="850" math="0" shadow="0">
      <root>
        <mxCell id="0" />
        <mxCell id="1" parent="0" />
        <mxCell id="7N91sRZmlMwVuw6FY_wK-72" value="Local Machine" style="points=[[0,0],[0.25,0],[0.5,0],[0.75,0],[1,0],[1,0.25],[1,0.5],[1,0.75],[1,1],[0.75,1],[0.5,1],[0.25,1],[0,1],[0,0.75],[0,0.5],[0,0.25]];outlineConnect=0;gradientColor=none;html=1;whiteSpace=wrap;fontSize=12;fontStyle=0;container=0;pointerEvents=0;collapsible=0;recursiveResize=0;shape=mxgraph.aws4.group;grIcon=mxgraph.aws4.group_security_group;grStroke=0;strokeColor=#00A4A6;fillColor=#E6F6F7;verticalAlign=top;align=left;spacingLeft=30;fontColor=#147EBA;dashed=0;" parent="1" vertex="1">
          <mxGeometry x="210" y="200" width="290" height="100" as="geometry" />
        </mxCell>
        <mxCell id="7N91sRZmlMwVuw6FY_wK-45" value="Private Network" style="points=[[0,0],[0.25,0],[0.5,0],[0.75,0],[1,0],[1,0.25],[1,0.5],[1,0.75],[1,1],[0.75,1],[0.5,1],[0.25,1],[0,1],[0,0.75],[0,0.5],[0,0.25]];outlineConnect=0;gradientColor=none;html=1;whiteSpace=wrap;fontSize=12;fontStyle=0;container=0;pointerEvents=0;collapsible=0;recursiveResize=0;shape=mxgraph.aws4.group;grIcon=mxgraph.aws4.group_security_group;grStroke=0;strokeColor=#00A4A6;fillColor=#E6F6F7;verticalAlign=top;align=left;spacingLeft=30;fontColor=#147EBA;dashed=0;" parent="1" vertex="1">
          <mxGeometry x="430" y="40" width="150" height="100" as="geometry" />
        </mxCell>
        <mxCell id="7N91sRZmlMwVuw6FY_wK-74" value="Local Machine" style="points=[[0,0],[0.25,0],[0.5,0],[0.75,0],[1,0],[1,0.25],[1,0.5],[1,0.75],[1,1],[0.75,1],[0.5,1],[0.25,1],[0,1],[0,0.75],[0,0.5],[0,0.25]];outlineConnect=0;gradientColor=none;html=1;whiteSpace=wrap;fontSize=12;fontStyle=0;container=0;pointerEvents=0;collapsible=0;recursiveResize=0;shape=mxgraph.aws4.group;grIcon=mxgraph.aws4.group_security_group;grStroke=0;strokeColor=#00A4A6;fillColor=#E6F6F7;verticalAlign=top;align=left;spacingLeft=30;fontColor=#147EBA;dashed=0;" parent="1" vertex="1">
          <mxGeometry x="210" y="40" width="180" height="100" as="geometry" />
        </mxCell>
        <mxCell id="7N91sRZmlMwVuw6FY_wK-77" style="edgeStyle=orthogonalEdgeStyle;rounded=0;orthogonalLoop=1;jettySize=auto;html=1;" parent="1" source="7N91sRZmlMwVuw6FY_wK-75" target="7N91sRZmlMwVuw6FY_wK-56" edge="1">
          <mxGeometry relative="1" as="geometry">
            <mxPoint x="380" y="90" as="targetPoint" />
          </mxGeometry>
        </mxCell>
        <mxCell id="7N91sRZmlMwVuw6FY_wK-78" value="HTTP" style="edgeLabel;html=1;align=center;verticalAlign=middle;resizable=0;points=[];" parent="7N91sRZmlMwVuw6FY_wK-77" vertex="1" connectable="0">
          <mxGeometry x="-0.3971" relative="1" as="geometry">
            <mxPoint x="-19" as="offset" />
          </mxGeometry>
        </mxCell>
        <mxCell id="7N91sRZmlMwVuw6FY_wK-58" value="VPN" style="sketch=0;pointerEvents=1;shadow=0;dashed=0;html=1;strokeColor=none;fillColor=#00a4a6;labelPosition=center;verticalLabelPosition=bottom;verticalAlign=top;outlineConnect=0;align=center;shape=mxgraph.office.servers.tunnel_straight;" parent="1" vertex="1">
          <mxGeometry x="380" y="95" width="60" height="10" as="geometry" />
        </mxCell>
        <mxCell id="7N91sRZmlMwVuw6FY_wK-79" value="Corporative Network" style="points=[[0,0],[0.25,0],[0.5,0],[0.75,0],[1,0],[1,0.25],[1,0.5],[1,0.75],[1,1],[0.75,1],[0.5,1],[0.25,1],[0,1],[0,0.75],[0,0.5],[0,0.25]];outlineConnect=0;gradientColor=none;html=1;whiteSpace=wrap;fontSize=12;fontStyle=0;container=1;pointerEvents=0;collapsible=0;recursiveResize=0;shape=mxgraph.aws4.group;grIcon=mxgraph.aws4.group_security_group;grStroke=0;strokeColor=#00A4A6;fillColor=#E6F6F7;verticalAlign=top;align=left;spacingLeft=30;fontColor=#147EBA;dashed=0;" parent="1" vertex="1">
          <mxGeometry x="210" y="360" width="290" height="180" as="geometry" />
        </mxCell>
        <mxCell id="7N91sRZmlMwVuw6FY_wK-80" style="edgeStyle=orthogonalEdgeStyle;rounded=0;orthogonalLoop=1;jettySize=auto;html=1;" parent="7N91sRZmlMwVuw6FY_wK-79" source="7N91sRZmlMwVuw6FY_wK-81" target="7N91sRZmlMwVuw6FY_wK-82" edge="1">
          <mxGeometry relative="1" as="geometry" />
        </mxCell>
        <mxCell id="7N91sRZmlMwVuw6FY_wK-81" value="Artifact Gateway" style="rounded=0;whiteSpace=wrap;html=1;" parent="7N91sRZmlMwVuw6FY_wK-79" vertex="1">
          <mxGeometry x="170" y="40" width="100" height="40" as="geometry" />
        </mxCell>
        <mxCell id="7N91sRZmlMwVuw6FY_wK-82" value="CodeArtifact" style="rounded=0;whiteSpace=wrap;html=1;" parent="7N91sRZmlMwVuw6FY_wK-79" vertex="1">
          <mxGeometry x="310" y="40" width="100" height="40" as="geometry" />
        </mxCell>
        <mxCell id="7N91sRZmlMwVuw6FY_wK-88" value="Maven / NPM" style="rounded=0;whiteSpace=wrap;html=1;" parent="7N91sRZmlMwVuw6FY_wK-79" vertex="1">
          <mxGeometry x="20" y="40" width="100" height="40" as="geometry" />
        </mxCell>
        <mxCell id="7N91sRZmlMwVuw6FY_wK-85" style="edgeStyle=orthogonalEdgeStyle;rounded=0;orthogonalLoop=1;jettySize=auto;html=1;" parent="7N91sRZmlMwVuw6FY_wK-79" source="7N91sRZmlMwVuw6FY_wK-88" target="7N91sRZmlMwVuw6FY_wK-81" edge="1">
          <mxGeometry relative="1" as="geometry">
            <mxPoint x="-100" y="70" as="sourcePoint" />
            <mxPoint x="-50" y="70" as="targetPoint" />
          </mxGeometry>
        </mxCell>
        <mxCell id="7N91sRZmlMwVuw6FY_wK-86" value="HTTP" style="edgeLabel;html=1;align=center;verticalAlign=middle;resizable=0;points=[];" parent="7N91sRZmlMwVuw6FY_wK-85" vertex="1" connectable="0">
          <mxGeometry x="-0.3971" relative="1" as="geometry">
            <mxPoint x="5" as="offset" />
          </mxGeometry>
        </mxCell>
        <mxCell id="7N91sRZmlMwVuw6FY_wK-94" style="edgeStyle=orthogonalEdgeStyle;rounded=1;orthogonalLoop=1;jettySize=auto;html=1;curved=0;" parent="7N91sRZmlMwVuw6FY_wK-79" source="7N91sRZmlMwVuw6FY_wK-93" target="7N91sRZmlMwVuw6FY_wK-81" edge="1">
          <mxGeometry relative="1" as="geometry">
            <Array as="points">
              <mxPoint x="200" y="110" />
            </Array>
          </mxGeometry>
        </mxCell>
        <mxCell id="7N91sRZmlMwVuw6FY_wK-97" value="HTTP" style="edgeLabel;html=1;align=center;verticalAlign=middle;resizable=0;points=[];" parent="7N91sRZmlMwVuw6FY_wK-94" vertex="1" connectable="0">
          <mxGeometry x="-0.6529" relative="1" as="geometry">
            <mxPoint x="4" as="offset" />
          </mxGeometry>
        </mxCell>
        <mxCell id="7N91sRZmlMwVuw6FY_wK-93" value="Maven / NPM" style="rounded=0;whiteSpace=wrap;html=1;" parent="7N91sRZmlMwVuw6FY_wK-79" vertex="1">
          <mxGeometry x="40" y="90" width="100" height="40" as="geometry" />
        </mxCell>
        <mxCell id="7N91sRZmlMwVuw6FY_wK-96" style="edgeStyle=orthogonalEdgeStyle;rounded=0;orthogonalLoop=1;jettySize=auto;html=1;" parent="7N91sRZmlMwVuw6FY_wK-79" source="7N91sRZmlMwVuw6FY_wK-95" target="7N91sRZmlMwVuw6FY_wK-81" edge="1">
          <mxGeometry relative="1" as="geometry" />
        </mxCell>
        <mxCell id="7N91sRZmlMwVuw6FY_wK-98" value="HTTP" style="edgeLabel;html=1;align=center;verticalAlign=middle;resizable=0;points=[];" parent="7N91sRZmlMwVuw6FY_wK-96" vertex="1" connectable="0">
          <mxGeometry x="-0.1476" y="-1" relative="1" as="geometry">
            <mxPoint as="offset" />
          </mxGeometry>
        </mxCell>
        <mxCell id="7N91sRZmlMwVuw6FY_wK-95" value="Maven / NPM" style="rounded=0;whiteSpace=wrap;html=1;" parent="7N91sRZmlMwVuw6FY_wK-79" vertex="1">
          <mxGeometry x="170" y="120" width="100" height="40" as="geometry" />
        </mxCell>
        <mxCell id="7N91sRZmlMwVuw6FY_wK-89" value="Connecting Package Manager to Artifact Gateway through VPN:" style="text;html=1;align=left;verticalAlign=middle;whiteSpace=wrap;rounded=0;fontStyle=1" parent="1" vertex="1">
          <mxGeometry x="210" y="10" width="430" height="30" as="geometry" />
        </mxCell>
        <mxCell id="7N91sRZmlMwVuw6FY_wK-90" value="Connecting Package Manager to Artifact Gateway on Local Machine:" style="text;html=1;align=left;verticalAlign=middle;whiteSpace=wrap;rounded=0;fontStyle=1" parent="1" vertex="1">
          <mxGeometry x="210" y="170" width="430" height="30" as="geometry" />
        </mxCell>
        <mxCell id="7N91sRZmlMwVuw6FY_wK-91" value="Connecting Package Manager to Artifact Gateway within Corporative Network:" style="text;html=1;align=left;verticalAlign=middle;whiteSpace=wrap;rounded=0;fontStyle=1" parent="1" vertex="1">
          <mxGeometry x="210" y="330" width="470" height="30" as="geometry" />
        </mxCell>
        <mxCell id="7N91sRZmlMwVuw6FY_wK-75" value="Maven / NPM" style="rounded=0;whiteSpace=wrap;html=1;" parent="1" vertex="1">
          <mxGeometry x="230" y="80" width="100" height="40" as="geometry" />
        </mxCell>
        <mxCell id="7N91sRZmlMwVuw6FY_wK-59" style="edgeStyle=orthogonalEdgeStyle;rounded=0;orthogonalLoop=1;jettySize=auto;html=1;" parent="1" source="7N91sRZmlMwVuw6FY_wK-56" target="7N91sRZmlMwVuw6FY_wK-52" edge="1">
          <mxGeometry relative="1" as="geometry" />
        </mxCell>
        <mxCell id="7N91sRZmlMwVuw6FY_wK-56" value="Artifact Gateway" style="rounded=0;whiteSpace=wrap;html=1;" parent="1" vertex="1">
          <mxGeometry x="460" y="80" width="100" height="40" as="geometry" />
        </mxCell>
        <mxCell id="7N91sRZmlMwVuw6FY_wK-52" value="CodeArtifact" style="rounded=0;whiteSpace=wrap;html=1;" parent="1" vertex="1">
          <mxGeometry x="600" y="80" width="100" height="40" as="geometry" />
        </mxCell>
        <mxCell id="7N91sRZmlMwVuw6FY_wK-67" value="Maven / NPM" style="rounded=0;whiteSpace=wrap;html=1;" parent="1" vertex="1">
          <mxGeometry x="230" y="240" width="100" height="40" as="geometry" />
        </mxCell>
        <mxCell id="7N91sRZmlMwVuw6FY_wK-92" style="edgeStyle=orthogonalEdgeStyle;rounded=0;orthogonalLoop=1;jettySize=auto;html=1;" parent="1" source="7N91sRZmlMwVuw6FY_wK-69" target="7N91sRZmlMwVuw6FY_wK-70" edge="1">
          <mxGeometry relative="1" as="geometry" />
        </mxCell>
        <mxCell id="7N91sRZmlMwVuw6FY_wK-69" value="Artifact Gateway" style="rounded=0;whiteSpace=wrap;html=1;" parent="1" vertex="1">
          <mxGeometry x="380" y="240" width="100" height="40" as="geometry" />
        </mxCell>
        <mxCell id="7N91sRZmlMwVuw6FY_wK-65" style="edgeStyle=orthogonalEdgeStyle;rounded=0;orthogonalLoop=1;jettySize=auto;html=1;" parent="1" source="7N91sRZmlMwVuw6FY_wK-67" target="7N91sRZmlMwVuw6FY_wK-69" edge="1">
          <mxGeometry relative="1" as="geometry">
            <mxPoint x="470" y="240" as="targetPoint" />
          </mxGeometry>
        </mxCell>
        <mxCell id="7N91sRZmlMwVuw6FY_wK-66" value="HTTP" style="edgeLabel;html=1;align=center;verticalAlign=middle;resizable=0;points=[];" parent="7N91sRZmlMwVuw6FY_wK-65" vertex="1" connectable="0">
          <mxGeometry x="-0.3971" relative="1" as="geometry">
            <mxPoint x="5" as="offset" />
          </mxGeometry>
        </mxCell>
        <mxCell id="7N91sRZmlMwVuw6FY_wK-70" value="CodeArtifact" style="rounded=0;whiteSpace=wrap;html=1;" parent="1" vertex="1">
          <mxGeometry x="520" y="240" width="100" height="40" as="geometry" />
        </mxCell>
      </root>
    </mxGraphModel>
  </diagram>
</mxfile>
